<?xml version="1.0" encoding="UTF-8" standalone="no"?>
<!-- Created with Inkscape (http://www.inkscape.org/) -->

<svg
   width="1200mm"
   height="630mm"
   viewBox="0 0 1200 630"
   version="1.1"
   id="svg5"
   inkscape:version="1.1.1 (3bf5ae0d25, 2021-09-20)"
   sodipodi:docname="og-image-is.svg"
   inkscape:export-filename="C:\Users\recon\Desktop\og-image.png"
   inkscape:export-xdpi="25.4"
   inkscape:export-ydpi="25.4"
   xmlns:inkscape="http://www.inkscape.org/namespaces/inkscape"
   xmlns:sodipodi="http://sodipodi.sourceforge.net/DTD/sodipodi-0.dtd"
   xmlns="http://www.w3.org/2000/svg"
   xmlns:svg="http://www.w3.org/2000/svg">
  <sodipodi:namedview
     id="namedview7"
     pagecolor="#505050"
     bordercolor="#ffffff"
     borderopacity="1"
     inkscape:pageshadow="0"
     inkscape:pageopacity="0"
     inkscape:pagecheckerboard="1"
     inkscape:document-units="px"
     showgrid="false"
     inkscape:zoom="0.27937314"
     inkscape:cx="2242.5205"
     inkscape:cy="859.06613"
     inkscape:window-width="2542"
     inkscape:window-height="1797"
     inkscape:window-x="4953"
     inkscape:window-y="198"
     inkscape:window-maximized="0"
     inkscape:current-layer="svg5" />
  <defs
     id="defs2">
    <rect
       x="-393.73864"
       y="476.06581"
       width="5014.7985"
       height="1600.0107"
       id="rect23451" />
    <rect
       x="4137.8351"
       y="705.1501"
       width="2423.2823"
       height="1127.5243"
       id="rect31470" />
  </defs>
  <rect
     style="font-variation-settings:'wght' 700;display:inline;fill:#ff6600;fill-opacity:1;stroke:#e7e5e4;stroke-width:0"
     id="rect846"
     width="1200"
     height="630"
     x="4.9999994e-07"
     y="5e-07" />
  <g
     aria-label="KONO NEWS"
     id="text5355"
     style="font-size:148.167px;font-family:'Segoe UI Variable';-inkscape-font-specification:'Segoe UI Variable, @opsz=5.0,wght=700';font-variant-ligatures:none;font-variation-settings:'opsz' 5, 'wght' 700;fill:#ffffff;stroke-width:0.264583">
    <path
       d="m 216.60372,302.1124 h -28.64956 l -33.19711,-46.83976 q -0.53055,-0.75792 -1.28847,-2.19798 -0.68214,-1.44006 -1.59165,-3.41066 h -0.37896 v 52.4484 H 128.76023 V 193.42597 h 22.73774 v 50.4778 h 0.37896 q 0.45476,-0.9853 1.21268,-2.42536 0.75793,-1.44006 1.81902,-3.25908 l 31.60547,-44.79336 h 26.52737 l -38.72996,51.38731 z"
       id="path33807" />
    <path
       d="m 269.96163,304.00721 q -23.26829,0 -37.89624,-15.1585 -14.55216,-15.23429 -14.55216,-39.63947 0,-25.84523 14.77953,-41.68586 14.85533,-15.91643 39.4121,-15.91643 23.1925,0 37.44148,15.23429 14.32478,15.23429 14.32478,40.09423 0,25.76944 -14.77953,41.45849 -14.77954,15.61325 -38.72996,15.61325 z m 0.37896,-19.70605 q 13.49106,0 21.29769,-9.47406 7.88242,-9.54985 7.88242,-26.45157 0,-17.58386 -7.65504,-27.36109 -7.57925,-9.77723 -20.84294,-9.77723 -13.49106,0 -21.60086,10.0804 -8.034,10.0804 -8.034,26.60316 0,16.75014 8.034,26.60316 8.03401,9.77723 20.91873,9.77723 z"
       id="path33809" />
    <path
       d="m 441.48003,302.1124 h -23.34408 l -46.4608,-71.01756 q -1.81902,-2.80432 -3.10749,-4.92651 -1.28847,-2.19798 -2.0464,-3.78963 h -0.30317 q 0.30317,2.72853 0.45476,7.0487 0.15158,4.32018 0.15158,10.1562 v 62.5288 H 345.22358 V 193.42597 h 24.93572 l 44.79336,68.97116 q 1.51585,2.27378 2.88012,4.47176 1.36426,2.19798 2.42535,4.16859 h 0.30317 q -0.30317,-1.97061 -0.45475,-5.76023 -0.15159,-3.78963 -0.15159,-9.32248 v -62.5288 h 21.52507 z"
       id="path33811" />
    <path
       d="m 515.83243,304.00721 q -23.26829,0 -37.89624,-15.1585 -14.55216,-15.23429 -14.55216,-39.63947 0,-25.84523 14.77954,-41.68586 14.85532,-15.91643 39.41209,-15.91643 23.1925,0 37.44149,15.23429 14.32478,15.23429 14.32478,40.09423 0,25.76944 -14.77954,41.45849 -14.77953,15.61325 -38.72996,15.61325 z m 0.37896,-19.70605 q 13.49107,0 21.29769,-9.47406 7.88242,-9.54985 7.88242,-26.45157 0,-17.58386 -7.65504,-27.36109 -7.57925,-9.77723 -20.84293,-9.77723 -13.49107,0 -21.60086,10.0804 -8.034,10.0804 -8.034,26.60316 0,16.75014 8.034,26.60316 8.034,9.77723 20.91872,9.77723 z"
       id="path33813" />
    <path
       d="m 730.0978,302.1124 h -23.34409 l -46.46079,-71.01756 q -1.81902,-2.80432 -3.10749,-4.92651 -1.28847,-2.19798 -2.0464,-3.78963 h -0.30317 q 0.30317,2.72853 0.45476,7.0487 0.15158,4.32018 0.15158,10.1562 v 62.5288 H 633.84134 V 193.42597 h 24.93573 l 44.79336,68.97116 q 1.51585,2.27378 2.88011,4.47176 1.36427,2.19798 2.42536,4.16859 h 0.30317 q -0.30317,-1.97061 -0.45475,-5.76023 -0.15159,-3.78963 -0.15159,-9.32248 v -62.5288 h 21.52507 z"
       id="path33815" />
    <path
       d="M 822.9436,302.1124 H 758.82315 V 193.42597 h 61.61929 v 18.72075 H 781.5609 v 25.92103 h 36.15301 V 256.7127 H 781.5609 v 26.75475 h 41.3827 z"
       id="path33817" />
    <path
       d="M 984.3816,193.42597 955.35307,302.1124 h -25.31469 l -18.72074,-71.16915 q -0.68213,-2.72853 -1.13689,-5.76023 -0.45475,-3.03169 -0.60634,-6.29077 h -0.30317 q -0.22737,3.56225 -0.75792,6.59394 -0.45476,2.95591 -1.21268,5.45706 l -19.02391,71.16915 h -26.3 L 832.94821,193.42597 h 24.85994 l 16.44697,74.04926 q 0.53054,2.34957 0.90951,5.38127 0.37896,3.0317 0.60634,6.82132 h 0.45475 q 0.15159,-2.88011 0.68213,-5.98761 0.60634,-3.10749 1.51585,-6.51815 l 20.31239,-73.74609 h 24.1778 l 18.56916,74.6556 q 0.45475,1.97061 0.90951,4.85072 0.45475,2.88011 0.83372,6.59395 h 0.30317 q 0.15158,-2.88012 0.60634,-5.83603 0.45475,-2.9559 1.06109,-6.06339 l 16.06801,-74.20085 z"
       id="path33819" />
    <path
       d="m 993.85567,294.53315 9.39823,-17.73544 q 8.1098,4.85072 14.4006,6.74553 6.2908,1.81902 13.1121,1.81902 8.7161,0 13.1879,-3.48646 4.5475,-3.56224 4.5475,-9.92881 0,-5.91182 -3.7138,-9.17089 -3.638,-3.25908 -13.0363,-5.68444 -17.8112,-4.39596 -25.921,-11.89942 -8.10982,-7.57925 -8.10982,-20.91872 0,-13.71844 10.45932,-23.1925 10.5352,-9.47407 29.2559,-9.47407 7.9583,0 15.6133,1.81902 7.655,1.81902 14.7037,5.38127 l -8.7161,17.96282 q -6.215,-3.48645 -11.8236,-5.0023 -5.5329,-1.59165 -10.611,-1.59165 -7.7308,0 -12.051,3.18329 -4.3201,3.10749 -4.3201,8.86772 0,5.30547 3.9412,8.18559 4.017,2.88011 14.0974,5.38126 17.4322,4.32017 25.1631,12.20259 7.8066,7.80663 7.8066,21.97982 0,15.1585 -10.6867,24.63256 -10.611,9.39827 -30.6202,9.39827 -9.3983,0 -18.8723,-2.42536 -9.4741,-2.50115 -17.20493,-7.0487 z"
       id="path33821" />
  </g>
  <g
     aria-label="A FLUENT HACKER NEWS VIEWER"
     id="text10533"
     style="font-size:50.8px;line-height:1.25;font-family:Sans;-inkscape-font-specification:'Sans, Normal';font-variant-ligatures:none;stroke-width:0.264583"
     transform="translate(1.1188287e-5,-3.085656e-5)">
    <path
       d="m 176.19849,434.7009 14.93792,-39.52211 h 6.09092 l 14.93793,39.52211 h -6.11849 l -3.7207,-10.00455 h -16.48132 l -3.52778,10.00455 z m 11.27234,-14.82768 h 13.22916 l -5.92556,-16.48133 q -0.19293,-0.55121 -0.33073,-1.0473 -0.13781,-0.52366 -0.30317,-1.32292 h -0.1378 q -0.19293,0.74414 -0.33073,1.26779 -0.11025,0.52366 -0.33073,1.07487 z"
       style="font-size:56.4444px;font-family:'Segoe UI Variable';-inkscape-font-specification:'Segoe UI Variable, @opsz=24.9,wght=500';font-variation-settings:'opsz' 24.9, 'wght' 500;fill:#ffffff"
       id="path33840" />
    <path
       d="m 252.45906,400.0846 h -15.10328 v 12.73307 h 13.94573 v 4.87825 h -13.94573 v 17.00498 h -5.59483 v -39.52211 h 20.69811 z"
       style="font-size:56.4444px;font-family:'Segoe UI Variable';-inkscape-font-specification:'Segoe UI Variable, @opsz=24.9,wght=500';font-variation-settings:'opsz' 24.9, 'wght' 500;fill:#ffffff"
       id="path33842" />
    <path
       d="m 280.59858,434.7009 h -21.19421 v -39.52211 h 5.59483 v 34.6163 h 15.59938 z"
       style="font-size:56.4444px;font-family:'Segoe UI Variable';-inkscape-font-specification:'Segoe UI Variable, @opsz=24.9,wght=500';font-variation-settings:'opsz' 24.9, 'wght' 500;fill:#ffffff"
       id="path33844" />
    <path
       d="m 314.71878,418.85347 q 0,7.63433 -3.88606,12.07161 -3.85851,4.43728 -11.49283,4.43728 -7.3036,0 -11.05186,-4.27192 -3.7207,-4.29948 -3.7207,-11.9338 v -23.97785 h 5.59483 v 23.70224 q 0,5.67751 2.56315,8.57139 2.56315,2.89388 7.08311,2.89388 4.38216,0 6.83507,-2.78364 2.48046,-2.78363 2.48046,-8.26822 v -24.11565 h 5.59483 z"
       style="font-size:56.4444px;font-family:'Segoe UI Variable';-inkscape-font-specification:'Segoe UI Variable, @opsz=24.9,wght=500';font-variation-settings:'opsz' 24.9, 'wght' 500;fill:#ffffff"
       id="path33846" />
    <path
       d="m 345.53169,434.7009 h -21.5525 v -39.52211 h 20.67056 v 4.90581 h -15.07573 v 12.12673 h 13.9733 v 4.87825 h -13.9733 v 12.70551 h 15.95767 z"
       style="font-size:56.4444px;font-family:'Segoe UI Variable';-inkscape-font-specification:'Segoe UI Variable, @opsz=24.9,wght=500';font-variation-settings:'opsz' 24.9, 'wght' 500;fill:#ffffff"
       id="path33848" />
    <path
       d="m 385.24672,434.7009 h -6.42165 l -19.43033,-29.93097 q -0.46853,-0.74414 -0.7717,-1.26779 -0.30317,-0.52366 -0.57877,-1.07487 h -0.16537 q 0.0827,0.68902 0.11024,2.01193 0.0551,1.32292 0.0551,3.30729 v 26.95441 h -5.48459 v -39.52211 h 6.8075 l 18.87911,29.37975 q 0.55122,0.88195 0.90951,1.48828 0.35828,0.60634 0.68901,1.18512 h 0.11025 q -0.11025,-0.79927 -0.16537,-2.20486 -0.0276,-1.4056 -0.0276,-3.41754 v -26.43075 h 5.48459 z"
       style="font-size:56.4444px;font-family:'Segoe UI Variable';-inkscape-font-specification:'Segoe UI Variable, @opsz=24.9,wght=500';font-variation-settings:'opsz' 24.9, 'wght' 500;fill:#ffffff"
       id="path33850" />
    <path
       d="m 419.06375,400.05704 h -11.27234 v 34.64386 h -5.6224 v -34.64386 h -11.24478 v -4.87825 h 28.13952 z"
       style="font-size:56.4444px;font-family:'Segoe UI Variable';-inkscape-font-specification:'Segoe UI Variable, @opsz=24.9,wght=500';font-variation-settings:'opsz' 24.9, 'wght' 500;fill:#ffffff"
       id="path33852" />
    <path
       d="m 469.99599,434.7009 h -5.62239 v -17.5562 h -19.51301 v 17.5562 h -5.59483 v -39.52211 h 5.59483 v 16.97742 h 19.51301 v -16.97742 h 5.62239 z"
       style="font-size:56.4444px;font-family:'Segoe UI Variable';-inkscape-font-specification:'Segoe UI Variable, @opsz=24.9,wght=500';font-variation-settings:'opsz' 24.9, 'wght' 500;fill:#ffffff"
       id="path33854" />
    <path
       d="m 475.37036,434.7009 14.93792,-39.52211 h 6.09093 l 14.93792,39.52211 h -6.11848 l -3.72071,-10.00455 h -16.48132 l -3.52777,10.00455 z m 11.27234,-14.82768 h 13.22916 l -5.92556,-16.48133 q -0.19292,-0.55121 -0.33073,-1.0473 -0.1378,-0.52366 -0.30317,-1.32292 h -0.1378 q -0.19292,0.74414 -0.33073,1.26779 -0.11024,0.52366 -0.33073,1.07487 z"
       style="font-size:56.4444px;font-family:'Segoe UI Variable';-inkscape-font-specification:'Segoe UI Variable, @opsz=24.9,wght=500';font-variation-settings:'opsz' 24.9, 'wght' 500;fill:#ffffff"
       id="path33856" />
    <path
       d="m 546.28413,428.91314 q -2.37022,2.92144 -5.87044,4.68533 -3.47265,1.76389 -8.24066,1.76389 -8.76431,0 -13.94573,-5.37435 -5.18142,-5.37434 -5.18142,-14.30403 0,-9.53601 5.45702,-15.35133 5.48459,-5.81532 14.16623,-5.81532 4.40971,0 7.717,1.65365 3.33485,1.65364 5.59483,4.74045 l -3.58289,3.11436 q -1.84657,-2.25998 -4.2168,-3.36241 -2.37022,-1.10243 -5.48458,-1.10243 -6.09093,0 -9.94943,4.29948 -3.83095,4.29947 -3.83095,11.46527 0,6.86262 3.69314,10.94161 3.7207,4.05143 9.86675,4.05143 3.22461,0 5.70507,-1.21267 2.50803,-1.24024 4.43728,-3.47266 z"
       style="font-size:56.4444px;font-family:'Segoe UI Variable';-inkscape-font-specification:'Segoe UI Variable, @opsz=24.9,wght=500';font-variation-settings:'opsz' 24.9, 'wght' 500;fill:#ffffff"
       id="path33858" />
    <path
       d="m 581.92017,434.7009 h -7.41384 l -14.41427,-17.77668 q -0.38585,-0.46853 -0.66146,-0.82682 -0.24804,-0.38585 -0.38585,-0.66146 h -0.1378 v 19.26496 h -5.59483 v -39.52211 h 5.59483 v 18.43814 h 0.1378 q 0.16537,-0.33073 0.44098,-0.68902 0.2756,-0.38585 0.60633,-0.79926 l 14.05598,-16.94986 h 6.64214 l -16.20572,18.90667 z"
       style="font-size:56.4444px;font-family:'Segoe UI Variable';-inkscape-font-specification:'Segoe UI Variable, @opsz=24.9,wght=500';font-variation-settings:'opsz' 24.9, 'wght' 500;fill:#ffffff"
       id="path33860" />
    <path
       d="m 608.54385,434.7009 h -21.5525 v -39.52211 h 20.67056 v 4.90581 h -15.07573 v 12.12673 h 13.9733 v 4.87825 h -13.9733 v 12.70551 h 15.95767 z"
       style="font-size:56.4444px;font-family:'Segoe UI Variable';-inkscape-font-specification:'Segoe UI Variable, @opsz=24.9,wght=500';font-variation-settings:'opsz' 24.9, 'wght' 500;fill:#ffffff"
       id="path33862" />
    <path
       d="m 644.51063,434.7009 h -6.53189 l -6.50434,-10.99674 q -1.87413,-3.11436 -3.16948,-3.94119 -1.2678,-0.85438 -3.05924,-0.88194 h -4.07899 v 15.81987 h -5.59484 v -39.52211 h 12.20941 q 5.67752,0 9.17773,2.78364 3.50022,2.78363 3.50022,8.07529 0,3.96875 -2.1773,6.86263 -2.1773,2.89388 -5.87044,4.16167 v 0.11024 q 1.26779,0.71658 2.23242,1.79145 0.96462,1.04731 2.09462,2.89388 z m -23.34394,-34.7541 v 14.16622 h 5.73263 q 3.33485,0 5.51215,-2.09461 2.1773,-2.12218 2.1773,-5.48459 0,-3.03168 -1.92925,-4.79557 -1.9017,-1.79145 -5.56727,-1.79145 z"
       style="font-size:56.4444px;font-family:'Segoe UI Variable';-inkscape-font-specification:'Segoe UI Variable, @opsz=24.9,wght=500';font-variation-settings:'opsz' 24.9, 'wght' 500;fill:#ffffff"
       id="path33864" />
    <path
       d="m 696.73824,434.7009 h -6.42166 l -19.43032,-29.93097 q -0.46853,-0.74414 -0.7717,-1.26779 -0.30317,-0.52366 -0.57878,-1.07487 h -0.16536 q 0.0827,0.68902 0.11024,2.01193 0.0551,1.32292 0.0551,3.30729 v 26.95441 h -5.48459 v -39.52211 h 6.80751 l 18.87911,29.37975 q 0.55121,0.88195 0.9095,1.48828 0.35829,0.60634 0.68902,1.18512 h 0.11024 q -0.11024,-0.79927 -0.16536,-2.20486 -0.0276,-1.4056 -0.0276,-3.41754 v -26.43075 h 5.48459 z"
       style="font-size:56.4444px;font-family:'Segoe UI Variable';-inkscape-font-specification:'Segoe UI Variable, @opsz=24.9,wght=500';font-variation-settings:'opsz' 24.9, 'wght' 500;fill:#ffffff"
       id="path33866" />
    <path
       d="m 728.04721,434.7009 h -21.5525 v -39.52211 h 20.67055 v 4.90581 h -15.07572 v 12.12673 h 13.97329 v 4.87825 h -13.97329 v 12.70551 h 15.95767 z"
       style="font-size:56.4444px;font-family:'Segoe UI Variable';-inkscape-font-specification:'Segoe UI Variable, @opsz=24.9,wght=500';font-variation-settings:'opsz' 24.9, 'wght' 500;fill:#ffffff"
       id="path33868" />
    <path
       d="m 782.67261,395.17879 -10.88649,39.52211 h -6.28385 l -7.77213,-27.80879 q -0.24804,-0.88195 -0.41341,-1.68121 -0.16536,-0.79926 -0.24805,-1.79145 h -0.11024 q -0.1378,0.99219 -0.30317,1.81901 -0.16536,0.79926 -0.38585,1.62609 l -7.85481,27.83635 h -6.42165 l -11.29991,-39.52211 h 6.06337 l 7.85481,29.13171 q 0.24805,0.9095 0.38585,1.6812 0.16536,0.7717 0.27561,1.76389 h 0.16536 q 0.1378,-0.88194 0.30317,-1.62608 0.19292,-0.74414 0.49609,-1.84657 l 8.29579,-29.10415 h 5.48458 l 7.9375,29.24195 q 0.22048,0.82682 0.35829,1.57096 0.16536,0.71658 0.30317,1.73633 h 0.11024 q 0.16536,-0.88194 0.30317,-1.59852 0.16536,-0.74414 0.41341,-1.76389 l 7.55164,-29.18683 z"
       style="font-size:56.4444px;font-family:'Segoe UI Variable';-inkscape-font-specification:'Segoe UI Variable, @opsz=24.9,wght=500';font-variation-settings:'opsz' 24.9, 'wght' 500;fill:#ffffff"
       id="path33870" />
    <path
       d="m 785.59407,429.27143 3.94118,-3.22461 q 1.79145,2.23242 4.05143,3.30729 2.25998,1.07487 5.29166,1.07487 3.55534,0 5.64996,-1.59852 2.09461,-1.62608 2.09461,-4.60264 0,-2.75608 -1.90169,-4.38216 -1.90169,-1.65365 -5.98068,-2.86632 -5.98068,-1.68121 -8.68163,-4.29948 -2.70096,-2.61827 -2.70096,-6.97286 0,-5.15386 3.63802,-8.15798 3.66558,-3.00412 9.20529,-3.00412 3.47265,0 6.36653,1.29535 2.92144,1.29536 5.18142,3.96875 l -3.63802,3.19704 q -1.73632,-1.90169 -3.7207,-2.72851 -1.95681,-0.82682 -4.43728,-0.82682 -3.30729,0 -5.18142,1.51584 -1.87413,1.48828 -1.87413,4.13411 0,2.48047 1.68121,3.91363 1.70877,1.43315 5.92556,2.61827 6.20117,1.73632 8.92968,4.54752 2.72851,2.78363 2.72851,7.52408 0,5.01606 -3.47265,8.35091 -3.47265,3.30729 -9.86675,3.30729 -4.32703,0 -7.68944,-1.54341 -3.36241,-1.57096 -5.53971,-4.54752 z"
       style="font-size:56.4444px;font-family:'Segoe UI Variable';-inkscape-font-specification:'Segoe UI Variable, @opsz=24.9,wght=500';font-variation-settings:'opsz' 24.9, 'wght' 500;fill:#ffffff"
       id="path33872" />
    <path
       d="m 863.94925,395.17879 -14.38671,39.52211 h -6.20117 l -14.13866,-39.52211 h 6.09092 l 10.3904,30.23414 q 0.27561,0.7717 0.46854,1.5434 0.19292,0.7717 0.33073,1.6812 h 0.1378 q 0.22049,-0.9095 0.41341,-1.65364 0.19293,-0.74414 0.49609,-1.65365 l 10.47309,-30.15145 z"
       style="font-size:56.4444px;font-family:'Segoe UI Variable';-inkscape-font-specification:'Segoe UI Variable, @opsz=24.9,wght=500';font-variation-settings:'opsz' 24.9, 'wght' 500;fill:#ffffff"
       id="path33874" />
    <path
       d="m 874.89084,434.7009 h -5.62239 v -39.52211 h 5.62239 z"
       style="font-size:56.4444px;font-family:'Segoe UI Variable';-inkscape-font-specification:'Segoe UI Variable, @opsz=24.9,wght=500';font-variation-settings:'opsz' 24.9, 'wght' 500;fill:#ffffff"
       id="path33876" />
    <path
       d="m 906.19986,434.7009 h -21.5525 v -39.52211 h 20.67055 v 4.90581 h -15.07572 v 12.12673 h 13.97329 v 4.87825 h -13.97329 v 12.70551 h 15.95767 z"
       style="font-size:56.4444px;font-family:'Segoe UI Variable';-inkscape-font-specification:'Segoe UI Variable, @opsz=24.9,wght=500';font-variation-settings:'opsz' 24.9, 'wght' 500;fill:#ffffff"
       id="path33878" />
    <path
       d="m 960.82526,395.17879 -10.88649,39.52211 h -6.28385 l -7.77213,-27.80879 q -0.24805,-0.88195 -0.41341,-1.68121 -0.16536,-0.79926 -0.24805,-1.79145 h -0.11024 q -0.1378,0.99219 -0.30317,1.81901 -0.16536,0.79926 -0.38585,1.62609 l -7.85481,27.83635 h -6.42165 L 908.8457,395.17879 h 6.06337 l 7.85481,29.13171 q 0.24804,0.9095 0.38585,1.6812 0.16536,0.7717 0.27561,1.76389 h 0.16536 q 0.1378,-0.88194 0.30317,-1.62608 0.19292,-0.74414 0.49609,-1.84657 l 8.29579,-29.10415 h 5.48458 l 7.9375,29.24195 q 0.22048,0.82682 0.35829,1.57096 0.16536,0.71658 0.30316,1.73633 h 0.11025 q 0.16536,-0.88194 0.30317,-1.59852 0.16536,-0.74414 0.41341,-1.76389 l 7.55164,-29.18683 z"
       style="font-size:56.4444px;font-family:'Segoe UI Variable';-inkscape-font-specification:'Segoe UI Variable, @opsz=24.9,wght=500';font-variation-settings:'opsz' 24.9, 'wght' 500;fill:#ffffff"
       id="path33880" />
    <path
       d="m 987.8348,434.7009 h -21.5525 v -39.52211 h 20.67056 v 4.90581 h -15.07573 v 12.12673 h 13.9733 v 4.87825 h -13.9733 v 12.70551 h 15.95767 z"
       style="font-size:56.4444px;font-family:'Segoe UI Variable';-inkscape-font-specification:'Segoe UI Variable, @opsz=24.9,wght=500';font-variation-settings:'opsz' 24.9, 'wght' 500;fill:#ffffff"
       id="path33882" />
    <path
       d="m 1023.8015,434.7009 h -6.5319 l -6.5043,-10.99674 q -1.8741,-3.11436 -3.1695,-3.94119 -1.2678,-0.85438 -3.0592,-0.88194 h -4.079 v 15.81987 h -5.59485 v -39.52211 h 12.20945 q 5.6775,0 9.1777,2.78364 3.5002,2.78363 3.5002,8.07529 0,3.96875 -2.1773,6.86263 -2.1773,2.89388 -5.8704,4.16167 v 0.11024 q 1.2678,0.71658 2.2324,1.79145 0.9646,1.04731 2.0946,2.89388 z m -23.3439,-34.7541 v 14.16622 h 5.7326 q 3.3349,0 5.5122,-2.09461 2.1773,-2.12218 2.1773,-5.48459 0,-3.03168 -1.9293,-4.79557 -1.9017,-1.79145 -5.5673,-1.79145 z"
       style="font-size:56.4444px;font-family:'Segoe UI Variable';-inkscape-font-specification:'Segoe UI Variable, @opsz=24.9,wght=500';font-variation-settings:'opsz' 24.9, 'wght' 500;fill:#ffffff"
       id="path33884" />
  </g>
  <text
     xml:space="preserve"
     transform="scale(0.26458334)"
     id="text23449"
     style="line-height:1.25;font-family:Sans;font-size:192px;-inkscape-font-specification:'Sans, Normal';font-variant-ligatures:none;white-space:pre;shape-inside:url(#rect23451)" />
</svg>
